<svg xmlns="http://www.w3.org/2000/svg" xmlns:xlink="http://www.w3.org/1999/xlink" width="40" zoomAndPan="magnify" viewBox="0 0 30 30.000001" height="40" preserveAspectRatio="xMidYMid meet" version="1.0"><defs><clipPath id="6b716bba10"><path d="M 8 0 L 21.785156 0 L 21.785156 29.03125 L 8 29.03125 Z M 8 0 " clip-rule="nonzero"/></clipPath></defs><g clip-path="url(#6b716bba10)"><path fill="#583c2c" d="M 17.394531 29.03125 L 10.773438 29.03125 C 10.59375 29.03125 10.445312 28.886719 10.445312 28.703125 L 10.445312 16.632812 L 8.328125 16.632812 C 8.144531 16.632812 8 16.484375 8 16.304688 L 8 11.242188 C 8 11.058594 8.144531 10.910156 8.328125 10.910156 L 10.445312 10.910156 C 10.445312 8.390625 10.582031 6.484375 11.46875 4.433594 C 13.386719 0 17.640625 0.71875 21.628906 0.25 C 21.824219 0.226562 22 0.378906 22 0.578125 L 22 3.019531 C 22 3.316406 21.714844 3.347656 21.507812 3.398438 C 18.710938 4.101562 17.722656 6.054688 17.722656 8.96875 L 17.722656 10.910156 L 21.40625 10.910156 C 21.589844 10.910156 21.738281 11.058594 21.738281 11.242188 L 21.738281 16.304688 C 21.738281 16.488281 21.589844 16.632812 21.40625 16.632812 L 17.722656 16.632812 L 17.722656 28.703125 C 17.722656 28.886719 17.574219 29.03125 17.394531 29.03125 Z M 17.394531 29.03125 " fill-opacity="1" fill-rule="evenodd"/></g></svg>