<svg xmlns="http://www.w3.org/2000/svg" xmlns:xlink="http://www.w3.org/1999/xlink" width="40" zoomAndPan="magnify" viewBox="0 0 30 30.000001" height="40" preserveAspectRatio="xMidYMid meet" version="1.0"><defs><clipPath id="bf2d2bf9b2"><path d="M 0.992188 1.011719 L 29 1.011719 L 29 29.03125 L 0.992188 29.03125 Z M 0.992188 1.011719 " clip-rule="nonzero"/></clipPath></defs><g clip-path="url(#bf2d2bf9b2)"><path fill="#583c2c" d="M 9.191406 1.109375 C 7.703125 1.179688 6.683594 1.417969 5.796875 1.765625 C 4.875 2.125 4.09375 2.605469 3.320312 3.386719 C 2.542969 4.164062 2.0625 4.945312 1.710938 5.867188 C 1.363281 6.761719 1.132812 7.777344 1.066406 9.269531 C 1 10.761719 0.984375 11.238281 0.992188 15.039062 C 1 18.839844 1.015625 19.320312 1.085938 20.8125 C 1.15625 22.300781 1.394531 23.316406 1.742188 24.207031 C 2.101562 25.128906 2.582031 25.90625 3.363281 26.683594 C 4.140625 27.460938 4.921875 27.9375 5.847656 28.292969 C 6.738281 28.640625 7.753906 28.875 9.246094 28.9375 C 10.738281 29.003906 11.214844 29.019531 15.015625 29.011719 C 18.820312 29.003906 19.292969 28.988281 20.789062 28.917969 C 22.277344 28.84375 23.292969 28.605469 24.183594 28.257812 C 25.105469 27.898438 25.886719 27.421875 26.660156 26.640625 C 27.4375 25.859375 27.914062 25.078125 28.269531 24.15625 C 28.617188 23.265625 28.851562 22.246094 28.914062 20.757812 C 28.980469 19.265625 28.996094 18.789062 28.988281 14.988281 C 28.980469 11.1875 28.964844 10.710938 28.894531 9.214844 C 28.824219 7.726562 28.585938 6.707031 28.238281 5.816406 C 27.875 4.898438 27.398438 4.117188 26.617188 3.339844 C 25.835938 2.566406 25.058594 2.085938 24.132812 1.730469 C 23.242188 1.386719 22.226562 1.152344 20.734375 1.089844 C 19.242188 1.023438 18.765625 1.007812 14.964844 1.015625 C 11.160156 1.019531 10.683594 1.039062 9.191406 1.109375 M 9.355469 26.417969 C 7.992188 26.359375 7.25 26.128906 6.753906 25.941406 C 6.101562 25.6875 5.632812 25.382812 5.140625 24.898438 C 4.652344 24.40625 4.347656 23.941406 4.09375 23.289062 C 3.902344 22.796875 3.671875 22.054688 3.605469 20.691406 C 3.535156 19.214844 3.519531 18.773438 3.511719 15.035156 C 3.507812 11.296875 3.519531 10.855469 3.585938 9.378906 C 3.640625 8.015625 3.871094 7.273438 4.0625 6.777344 C 4.3125 6.125 4.617188 5.660156 5.105469 5.167969 C 5.59375 4.675781 6.058594 4.371094 6.710938 4.117188 C 7.207031 3.921875 7.945312 3.695312 9.3125 3.628906 C 10.785156 3.558594 11.230469 3.542969 14.96875 3.535156 C 18.703125 3.527344 19.148438 3.542969 20.625 3.609375 C 21.988281 3.667969 22.730469 3.894531 23.222656 4.085938 C 23.878906 4.335938 24.34375 4.636719 24.835938 5.128906 C 25.328125 5.617188 25.632812 6.082031 25.886719 6.738281 C 26.078125 7.230469 26.308594 7.96875 26.375 9.332031 C 26.445312 10.808594 26.460938 11.253906 26.464844 14.988281 C 26.472656 18.726562 26.460938 19.171875 26.394531 20.644531 C 26.335938 22.011719 26.109375 22.753906 25.917969 23.246094 C 25.664062 23.898438 25.363281 24.367188 24.875 24.859375 C 24.382812 25.347656 23.917969 25.652344 23.265625 25.90625 C 22.773438 26.101562 22.03125 26.328125 20.667969 26.394531 C 19.191406 26.464844 18.75 26.480469 15.011719 26.488281 C 11.273438 26.492188 10.832031 26.480469 9.355469 26.414062 M 20.769531 7.53125 C 20.769531 8.457031 21.523438 9.207031 22.449219 9.207031 C 23.378906 9.203125 24.128906 8.449219 24.128906 7.523438 C 24.125 6.59375 23.371094 5.84375 22.445312 5.847656 C 21.515625 5.847656 20.765625 6.601562 20.765625 7.527344 M 7.800781 15.027344 C 7.808594 18.996094 11.035156 22.207031 15.003906 22.199219 C 18.972656 22.191406 22.1875 18.96875 22.175781 15 C 22.167969 11.03125 18.945312 7.816406 14.976562 7.824219 C 11.007812 7.832031 7.792969 11.054688 7.800781 15.027344 M 10.324219 15.019531 C 10.320312 12.445312 12.402344 10.351562 14.980469 10.347656 C 17.558594 10.339844 19.652344 12.425781 19.65625 15.003906 C 19.660156 17.582031 17.574219 19.675781 15 19.679688 C 12.421875 19.683594 10.328125 17.597656 10.324219 15.019531 " fill-opacity="1" fill-rule="nonzero"/></g></svg>