<svg xmlns="http://www.w3.org/2000/svg" xmlns:xlink="http://www.w3.org/1999/xlink" width="40" zoomAndPan="magnify" viewBox="0 0 30 30.000001" height="40" preserveAspectRatio="xMidYMid meet" version="1.0"><defs><clipPath id="3bd793c318"><path d="M 0.484375 0 L 29.515625 0 L 29.515625 29.03125 L 0.484375 29.03125 Z M 0.484375 0 " clip-rule="nonzero"/></clipPath></defs><g clip-path="url(#3bd793c318)"><rect x="-3" width="36" fill="#ffffff" y="-3" height="36.000001" fill-opacity="1"/></g><path fill="#583c2c" d="M 19.878906 4.773438 C 19.011719 4.207031 18.386719 3.304688 18.191406 2.246094 C 18.148438 2.019531 18.125 1.785156 18.125 1.542969 L 15.355469 1.542969 L 15.351562 12.644531 C 15.304688 13.886719 14.28125 14.886719 13.027344 14.886719 C 12.636719 14.886719 12.269531 14.789062 11.945312 14.617188 C 11.207031 14.226562 10.699219 13.449219 10.699219 12.558594 C 10.699219 11.273438 11.742188 10.230469 13.027344 10.230469 C 13.269531 10.230469 13.496094 10.269531 13.714844 10.335938 L 13.714844 7.507812 C 13.492188 7.476562 13.261719 7.460938 13.027344 7.460938 C 10.21875 7.460938 7.929688 9.746094 7.929688 12.558594 C 7.929688 14.28125 8.789062 15.808594 10.105469 16.730469 C 10.933594 17.3125 11.941406 17.65625 13.027344 17.65625 C 15.839844 17.65625 18.125 15.371094 18.125 12.558594 L 18.125 6.929688 C 19.210938 7.707031 20.542969 8.167969 21.980469 8.167969 L 21.980469 5.398438 C 21.207031 5.398438 20.488281 5.167969 19.882812 4.773438 Z M 19.878906 4.773438 " fill-opacity="1" fill-rule="nonzero"/><path fill="#583c2c" d="M 1.984375 20.78125 L 6.449219 20.78125 L 6.039062 22.058594 L 4.878906 22.058594 C 4.878906 22.058594 4.878906 26.78125 4.878906 26.78125 L 3.4375 26.78125 L 3.4375 22.058594 L 1.984375 22.0625 Z M 1.984375 20.78125 " fill-opacity="1" fill-rule="nonzero"/><path fill="#583c2c" d="M 13.757812 20.78125 L 18.324219 20.78125 L 17.914062 22.058594 L 16.65625 22.058594 C 16.65625 22.058594 16.65625 26.78125 16.65625 26.78125 L 15.210938 26.78125 L 15.210938 22.058594 L 13.761719 22.0625 L 13.761719 20.785156 Z M 13.757812 20.78125 " fill-opacity="1" fill-rule="nonzero"/><path fill="#583c2c" d="M 6.71875 22.6875 L 8.148438 22.6875 L 8.148438 26.777344 L 6.730469 26.777344 Z M 6.71875 22.6875 " fill-opacity="1" fill-rule="nonzero"/><path fill="#583c2c" d="M 8.71875 20.765625 L 10.148438 20.765625 L 10.148438 23.558594 L 11.566406 22.167969 L 13.269531 22.167969 C 13.269531 22.167969 11.480469 23.90625 11.480469 23.90625 L 13.484375 26.777344 L 11.910156 26.777344 L 10.574219 24.789062 L 10.148438 25.199219 L 10.148438 26.777344 L 8.71875 26.777344 Z M 8.71875 20.765625 " fill-opacity="1" fill-rule="nonzero"/><path fill="#583c2c" d="M 23.25 20.765625 L 24.679688 20.765625 L 24.679688 23.558594 L 26.097656 22.167969 L 27.804688 22.167969 C 27.804688 22.167969 26.011719 23.90625 26.011719 23.90625 L 28.019531 26.777344 L 26.445312 26.777344 L 25.105469 24.789062 L 24.683594 25.199219 L 24.683594 26.777344 L 23.253906 26.777344 L 23.253906 20.765625 Z M 23.25 20.765625 " fill-opacity="1" fill-rule="nonzero"/><path fill="#583c2c" d="M 8.15625 21.503906 C 8.15625 21.703125 8.085938 21.871094 7.945312 22.011719 C 7.804688 22.152344 7.632812 22.222656 7.433594 22.222656 C 7.234375 22.222656 7.066406 22.152344 6.925781 22.011719 C 6.785156 21.871094 6.714844 21.703125 6.714844 21.503906 C 6.714844 21.304688 6.785156 21.132812 6.925781 20.992188 C 7.066406 20.851562 7.234375 20.78125 7.433594 20.78125 C 7.632812 20.78125 7.804688 20.851562 7.945312 20.992188 C 8.085938 21.132812 8.15625 21.304688 8.15625 21.503906 Z M 8.15625 21.503906 " fill-opacity="1" fill-rule="nonzero"/><path fill="#583c2c" d="M 20.222656 21.882812 C 18.867188 21.882812 17.773438 22.976562 17.773438 24.332031 C 17.773438 25.683594 18.867188 26.777344 20.222656 26.777344 C 21.574219 26.777344 22.667969 25.683594 22.667969 24.332031 C 22.667969 22.976562 21.574219 21.882812 20.222656 21.882812 Z M 20.222656 25.523438 C 19.5625 25.523438 19.03125 24.988281 19.03125 24.332031 C 19.03125 23.675781 19.566406 23.144531 20.222656 23.144531 C 20.878906 23.144531 21.410156 23.675781 21.410156 24.332031 C 21.410156 24.988281 20.878906 25.523438 20.222656 25.523438 Z M 20.222656 25.523438 " fill-opacity="1" fill-rule="nonzero"/></svg>