<svg xmlns="http://www.w3.org/2000/svg" xmlns:xlink="http://www.w3.org/1999/xlink" width="40" zoomAndPan="magnify" viewBox="0 0 30 30.000001" height="40" preserveAspectRatio="xMidYMid meet" version="1.0"><defs><clipPath id="8c7c8053d5"><path d="M 0.484375 4.753906 L 29.515625 4.753906 L 29.515625 24.351562 L 0.484375 24.351562 Z M 0.484375 4.753906 " clip-rule="nonzero"/></clipPath></defs><g clip-path="url(#8c7c8053d5)"><path fill="#583c2c" d="M 10.585938 10.398438 C 10.585938 10.207031 10.613281 9.851562 11.066406 9.585938 C 11.46875 9.351562 12.28125 9.164062 12.777344 9.441406 L 20.0625 13.40625 C 20.4375 13.617188 20.839844 14.070312 20.832031 14.558594 C 20.832031 14.878906 20.660156 15.164062 20.371094 15.320312 L 20.351562 15.328125 L 12.761719 19.089844 C 12.59375 19.175781 12.394531 19.210938 12.175781 19.210938 C 11.75 19.210938 11.3125 19.074219 11.050781 18.917969 C 10.609375 18.652344 10.585938 18.304688 10.585938 18.117188 Z M 6.445312 24.265625 L 23.402344 24.265625 C 26.699219 24.265625 29.515625 21.402344 29.515625 18.101562 L 29.515625 10.214844 C 29.515625 6.914062 26.699219 4.757812 23.402344 4.757812 L 6.445312 4.757812 C 3.148438 4.757812 0.484375 6.914062 0.484375 10.214844 L 0.484375 18.101562 C 0.484375 21.402344 3.148438 24.265625 6.445312 24.265625 " fill-opacity="1" fill-rule="nonzero"/></g></svg>